<?xml version="1.0" encoding="utf-8"?>
<!-- Generator: Adobe Illustrator 16.0.4, SVG Export Plug-In . SVG Version: 6.00 Build 0)  -->
<!DOCTYPE svg PUBLIC "-//W3C//DTD SVG 1.1//EN" "http://www.w3.org/Graphics/SVG/1.1/DTD/svg11.dtd">
<svg version="1.1" id="Laag_1" xmlns="http://www.w3.org/2000/svg" xmlns:xlink="http://www.w3.org/1999/xlink" x="0px" y="0px"
	 width="200px" height="200px" viewBox="-77.5 0 200 200" enable-background="new -77.5 0 200 200" xml:space="preserve">
<g>
	<rect x="-76.5" y="1" fill="none" width="198" height="198"/>
	<g>
		<path fill="#0075BE" d="M92.5,30c-2.985-2.978-5.959-5.672-9.092-8.143C66.045,7.979,45.686,1,22.5,1
			c-3.708,0-7.415,0.219-11.049,0.58C-11.155,3.905-30.854,13.355-47.5,30c-9.812,9.743-17.08,20.571-21.875,32.42
			C-74.103,73.978-76.5,86.479-76.5,100c0,2.475,0.075,4.864,0.29,7.271c0.146,3.197,0.511,6.394,1.021,9.521
			c1.233,8.143,3.56,15.925,6.83,23.19c1.306,3.128,2.909,6.18,4.581,9.08c4.359,7.42,9.736,14.398,16.283,20.938
			c19.334,19.332,42.668,29,69.996,29c27.332,0,50.669-9.668,70-29c6.467-6.539,11.916-13.521,16.281-20.938
			c1.667-2.905,3.266-5.956,4.653-9.08c3.201-7.266,5.444-15.043,6.76-23.19c0.506-3.119,0.868-6.324,1.086-9.521
			c0.143-2.406,0.22-4.796,0.22-7.271C121.5,72.673,111.832,49.338,92.5,30"/>
		<path fill="#FFFFFF" d="M22.5,199.5c-27.338,0-51.007-9.807-70.35-29.146c-6.426-6.419-11.93-13.497-16.36-21.038
			c-1.939-3.363-3.447-6.353-4.611-9.141c-3.332-7.402-5.643-15.248-6.863-23.308c-0.542-3.331-0.888-6.555-1.026-9.574
			C-76.907,105.084-77,102.76-77,100c0-13.443,2.41-26.15,7.162-37.77c4.828-11.93,12.225-22.893,21.985-32.586
			C-31.232,13.027-11.297,3.417,11.399,1.083C15.29,0.696,19.024,0.5,22.5,0.5c23.218,0,43.815,7.054,61.221,20.967
			c2.996,2.363,5.984,5.039,9.133,8.18C112.193,48.992,122,72.663,122,100c0,2.407-0.072,4.795-0.221,7.3
			c-0.222,3.252-0.589,6.472-1.092,9.572c-1.333,8.261-3.62,16.104-6.795,23.312c-1.292,2.908-2.822,5.894-4.678,9.128
			c-4.341,7.375-9.844,14.452-16.359,21.04C73.515,189.693,49.844,199.5,22.5,199.5z M22.5,1.5c-3.443,0-7.144,0.194-11,0.578
			c-22.46,2.31-42.192,11.823-58.647,28.276c-9.666,9.598-16.988,20.449-21.765,32.254C-73.616,74.107-76,86.688-76,100
			c0,2.729,0.091,5.025,0.288,7.226c0.138,3.003,0.479,6.188,1.016,9.486c1.208,7.975,3.493,15.733,6.792,23.065
			c1.153,2.761,2.642,5.712,4.558,9.035c4.385,7.465,9.837,14.475,16.203,20.834C-27.995,188.792-4.563,198.5,22.5,198.5
			c27.069,0,50.502-9.708,69.646-28.854c6.455-6.527,11.907-13.539,16.204-20.838c1.836-3.199,3.35-6.154,4.627-9.029
			c3.141-7.128,5.403-14.89,6.724-23.067c0.498-3.07,0.861-6.259,1.08-9.476c0.147-2.48,0.219-4.85,0.219-7.236
			c0-27.062-9.708-50.494-28.854-69.646c-3.12-3.111-6.08-5.763-9.048-8.104C65.872,8.48,45.484,1.5,22.5,1.5z"/>
	</g>
	<g>
		<defs>
			<rect id="SVGID_1_" x="-76.5" y="1" width="198" height="198"/>
		</defs>
		<clipPath id="SVGID_2_">
			<use xlink:href="#SVGID_1_"  overflow="visible"/>
		</clipPath>
		<polygon clip-path="url(#SVGID_2_)" fill="#FFFFFF" points="81.084,71.546 68.73,71.546 62.478,76.412 68.73,81.283 
			81.084,81.283 87.271,76.412 		"/>
	</g>
	<g>
		<defs>
			<rect id="SVGID_3_" x="-76.5" y="1" width="198" height="198"/>
		</defs>
		<clipPath id="SVGID_4_">
			<use xlink:href="#SVGID_3_"  overflow="visible"/>
		</clipPath>
		<polygon clip-path="url(#SVGID_4_)" fill="#FFFFFF" points="67.858,91.535 67.858,81.938 61.679,77.067 55.422,81.938 
			55.422,91.604 61.609,96.401 		"/>
	</g>
	<g>
		<defs>
			<rect id="SVGID_5_" x="-76.5" y="1" width="198" height="198"/>
		</defs>
		<clipPath id="SVGID_6_">
			<use xlink:href="#SVGID_5_"  overflow="visible"/>
		</clipPath>
		<polygon clip-path="url(#SVGID_6_)" fill="#FFFFFF" points="81.156,92.329 68.657,92.329 62.478,97.133 68.803,101.927 
			81.238,101.927 87.34,97.133 		"/>
	</g>
	<g>
		<defs>
			<rect id="SVGID_7_" x="-76.5" y="1" width="198" height="198"/>
		</defs>
		<clipPath id="SVGID_8_">
			<use xlink:href="#SVGID_7_"  overflow="visible"/>
		</clipPath>
		<polygon clip-path="url(#SVGID_8_)" fill="#FFFFFF" points="67.858,112.319 67.858,102.656 61.679,97.854 55.422,102.729 
			55.422,112.319 61.679,117.119 		"/>
	</g>
	<g>
		<defs>
			<rect id="SVGID_9_" x="-76.5" y="1" width="198" height="198"/>
		</defs>
		<clipPath id="SVGID_10_">
			<use xlink:href="#SVGID_9_"  overflow="visible"/>
		</clipPath>
		<polygon clip-path="url(#SVGID_10_)" fill="#FFFFFF" points="81.015,113.191 68.657,113.191 62.4,118.063 68.657,122.859 
			81.015,122.859 87.271,118.063 		"/>
	</g>
	<g>
		<defs>
			<rect id="SVGID_11_" x="-76.5" y="1" width="198" height="198"/>
		</defs>
		<clipPath id="SVGID_12_">
			<use xlink:href="#SVGID_11_"  overflow="visible"/>
		</clipPath>
		<polygon clip-path="url(#SVGID_12_)" fill="#FFFFFF" points="100.351,123.658 94.168,118.786 87.993,123.658 93.88,128.459 		"/>
	</g>
	<g>
		<defs>
			<rect id="SVGID_13_" x="-76.5" y="1" width="198" height="198"/>
		</defs>
		<clipPath id="SVGID_14_">
			<use xlink:href="#SVGID_13_"  overflow="visible"/>
		</clipPath>
		<polygon clip-path="url(#SVGID_14_)" fill="#FFFFFF" points="-23.44,97.133 -29.619,92.329 -42.048,92.329 -48.151,97.133 
			-41.972,101.927 -29.619,101.927 		"/>
	</g>
	<g>
		<defs>
			<rect id="SVGID_15_" x="-76.5" y="1" width="198" height="198"/>
		</defs>
		<clipPath id="SVGID_16_">
			<use xlink:href="#SVGID_15_"  overflow="visible"/>
		</clipPath>
		<polygon clip-path="url(#SVGID_16_)" fill="#FFFFFF" points="-42.993,91.535 -42.993,81.938 -49.172,77.067 -55.345,81.938 
			-55.345,91.535 -49.247,96.401 		"/>
	</g>
	<g>
		<defs>
			<rect id="SVGID_17_" x="-76.5" y="1" width="198" height="198"/>
		</defs>
		<clipPath id="SVGID_18_">
			<use xlink:href="#SVGID_17_"  overflow="visible"/>
		</clipPath>
		<polygon clip-path="url(#SVGID_18_)" fill="#FFFFFF" points="-42.993,112.25 -42.993,102.578 -49.172,97.854 -55.345,102.656 
			-55.345,112.319 -49.247,117.046 		"/>
	</g>
	<g>
		<defs>
			<rect id="SVGID_19_" x="-76.5" y="1" width="198" height="198"/>
		</defs>
		<clipPath id="SVGID_20_">
			<use xlink:href="#SVGID_19_"  overflow="visible"/>
		</clipPath>
		<polygon clip-path="url(#SVGID_20_)" fill="#FFFFFF" points="-42.123,113.191 -48.441,118.063 -42.123,122.859 -29.763,122.859 
			-23.515,118.063 -29.763,113.191 		"/>
	</g>
	<g>
		<defs>
			<rect id="SVGID_21_" x="-76.5" y="1" width="198" height="198"/>
		</defs>
		<clipPath id="SVGID_22_">
			<use xlink:href="#SVGID_21_"  overflow="visible"/>
		</clipPath>
		<polygon clip-path="url(#SVGID_22_)" fill="#FFFFFF" points="-28.671,102.729 -28.671,112.393 -22.49,117.119 -16.316,112.319 
			-16.316,102.656 -22.49,97.857 		"/>
	</g>
	<g>
		<defs>
			<rect id="SVGID_23_" x="-76.5" y="1" width="198" height="198"/>
		</defs>
		<clipPath id="SVGID_24_">
			<use xlink:href="#SVGID_23_"  overflow="visible"/>
		</clipPath>
		<polygon clip-path="url(#SVGID_24_)" fill="#FFFFFF" points="41.904,118.063 35.589,113.191 23.302,113.191 17.049,118.063 
			23.302,122.859 35.589,122.859 		"/>
	</g>
	<g>
		<defs>
			<rect id="SVGID_25_" x="-76.5" y="1" width="198" height="198"/>
		</defs>
		<clipPath id="SVGID_26_">
			<use xlink:href="#SVGID_25_"  overflow="visible"/>
		</clipPath>
		<polygon clip-path="url(#SVGID_26_)" fill="#FFFFFF" points="36.671,102.729 36.671,112.319 42.851,117.119 49.103,112.319 
			49.103,102.656 42.928,97.857 		"/>
	</g>
	<g>
		<defs>
			<rect id="SVGID_27_" x="-76.5" y="1" width="198" height="198"/>
		</defs>
		<clipPath id="SVGID_28_">
			<use xlink:href="#SVGID_27_"  overflow="visible"/>
		</clipPath>
		<polygon clip-path="url(#SVGID_28_)" fill="#FFFFFF" points="2.004,91.535 2.004,81.938 -4.252,77.067 -10.425,81.938 
			-10.425,91.535 -4.252,96.401 		"/>
	</g>
	<g>
		<defs>
			<rect id="SVGID_29_" x="-76.5" y="1" width="198" height="198"/>
		</defs>
		<clipPath id="SVGID_30_">
			<use xlink:href="#SVGID_29_"  overflow="visible"/>
		</clipPath>
		<polygon clip-path="url(#SVGID_30_)" fill="#FFFFFF" points="2.004,112.319 2.004,102.656 -4.177,97.854 -10.425,102.656 
			-10.425,112.319 -4.252,117.119 		"/>
	</g>
	<g>
		<defs>
			<rect id="SVGID_31_" x="-76.5" y="1" width="198" height="198"/>
		</defs>
		<clipPath id="SVGID_32_">
			<use xlink:href="#SVGID_31_"  overflow="visible"/>
		</clipPath>
		<polygon clip-path="url(#SVGID_32_)" fill="#FFFFFF" points="22.429,112.25 22.429,102.656 16.248,97.854 10,102.656 10,112.319 
			16.248,117.046 		"/>
	</g>
</g>
</svg>
